<?xml version="1.0" encoding="UTF-8"?><svg id="Layer_1" xmlns="http://www.w3.org/2000/svg" viewBox="0 0 351.85 297.24"><defs><style>.cls-1{fill:#ff08dc;stroke-width:0px;}</style></defs><path class="cls-1" d="M339.29,220.69c-15.52-16.9-43.69-10.52-54.93-30.05-5.03-10.17-6.79-24.24-.45-34.12,6.8-11.18,23.26-11.29,34.58-16.34,14.28-8.06,19.4-24.18,13.17-43.87-21.33-56.82-72.51,10.97-78.51-29.59,2.88-18.54,18.74-35.09,1.88-52.8,0,0,0,0,0,0-19.21-24.7-65.58-8.73-65.21,21.5-.66,11.09,8.2,19.88,8.87,30.46-5.59,14.59-31.28,14.61-46.64,12.42-14.33-2.48-20.43-10.01-21.48-21.63,2.3-13.33,6.73-27.18-1.68-40.16,0,0,0,0,0,0-25.62-38.86-95.42-2.29-68.34,39.65,11.21,17.83,47.36,9.29,41.08,36.55-4.94,16.3-26.86,28.81-42.19,19.27-7.29-4.6-16.26-5.94-24.72-4.79,0,0,0,0,0,0-32.51,1.57-48.99,48.71-18.94,74.78,0,0,0,0,0,0,11.11,8.75,25.22,10.93,38.52,7.83,25.21-7.92,29.21-32.26,52.92-19.91,10.37,5.33,16.59,19.82,11.14,30.43-5,6.78-14.22,8.82-20.69,14.18,0,0,0,0,0,0-24.64,26.33,22.85,53.43,35.39,22.28,6.64-20.11,32.87-23.43,40.92-3.3,4.49,11.39-2.1,23.5-5.09,34.58,0,0,0,0,0,0-7.31,38.82,53.29,39.26,51.69-.61.04-9.91-2.63-17.31-2.96-24.18,1.11-23.85,35.95-12,40.69,3.83,19.53,81.88,130.34,35.35,80.96-26.4Z"/></svg>